<?xml version="1.0" encoding="UTF-8" standalone="no"?><!DOCTYPE svg PUBLIC "-//W3C//DTD SVG 1.1//EN" "http://www.w3.org/Graphics/SVG/1.1/DTD/svg11.dtd"><svg width="100%" height="100%" viewBox="0 0 2134 2134" version="1.1" xmlns="http://www.w3.org/2000/svg" xmlns:xlink="http://www.w3.org/1999/xlink" xml:space="preserve" xmlns:serif="http://www.serif.com/" style="fill-rule:evenodd;clip-rule:evenodd;stroke-linejoin:round;stroke-miterlimit:2;"><g id="Logo"><g><g><g><path d="M1575.78,1548.68c-87.233,-0 -174.354,-21.64 -252.796,-63.904c-58.381,-31.557 -112.028,-74.61 -157.222,-128.821c-118.79,-142.232 -151.7,-327.068 -104.139,-490.714c27.951,-96.024 83.514,-184.835 165.676,-253.471c97.263,-81.148 215.602,-120.707 333.604,-120.707c152.15,-0 303.85,65.707 409.905,192.837c188.441,225.409 160.491,558.675 -61.762,744.299c-97.151,81.034 -215.265,120.481 -333.266,120.481Z" style="fill:#fff;fill-rule:nonzero;"/><path d="M199.995,745.102c174.804,-373.952 701.132,-472.568 967.565,-142.007c-85.43,39.559 -149.107,80.696 -199.824,122.735c-15.328,-18.934 -33.586,-35.502 -53.648,-49.59c-188.103,-133.554 -475.273,-0.676 -552.589,178.975c-20.173,-28.29 -98.052,-81.599 -161.504,-110.113Z" style="fill:#4d4d4d;fill-rule:nonzero;"/><path d="M1953.33,1424.03c-22.766,23.443 -47.336,45.308 -74.047,65.031l-10.707,241.976l-166.464,-57.817c-341.945,-118.791 -739.79,-34.488 -1100.89,-13.412c-155.194,9.016 -299.568,-40.912 -407.313,-128.709c-107.633,-87.796 -178.637,-213.236 -186.977,-355.581c-5.86,-101.096 20.738,-197.233 71.455,-280.634c24.795,-40.01 54.21,-76.864 89.374,-109.436c170.409,82.951 218.083,93.77 138.514,224.733c-27.049,44.067 -41.363,95.911 -38.207,150.122c4.508,76.751 42.377,144.261 100.194,191.259l1.24,1.127c94.22,88.472 239.271,73.821 380.264,57.141c388.716,-45.307 664.617,-48.914 972.863,94.559l7.55,-206.7c200.952,-139.641 152.602,-384.434 6.763,-502.21c-108.309,-87.233 -271.279,-104.928 -426.36,43.504c-61.086,57.93 -105.379,145.501 -153.729,225.859c-82.387,135.133 -177.058,250.541 -388.604,173.903c192.95,-274.097 275.337,-716.799 729.873,-743.284c164.435,-9.58 317.037,42.714 431.319,135.132c113.493,93.206 188.103,225.859 196.894,376.657c4.621,79.569 -9.355,156.885 -39.334,227.776c-30.43,70.89 -76.3,135.357 -133.667,189.004Z" style="fill:url(#_Linear1);fill-rule:nonzero;"/><path d="M1218.16,1067.55l547.405,-31.895c24.682,-1.465 46.208,16.004 47.448,38.545c1.353,22.653 -18.032,41.926 -42.602,43.278l-547.517,31.895c-24.569,1.465 -45.307,-15.44 -46.66,-37.981c-1.239,-22.653 17.244,-42.377 41.926,-43.842Zm74.836,127.581l366.514,-21.301c24.569,-1.465 45.87,16.004 47.223,38.545c1.353,22.654 -17.807,41.926 -42.489,43.391l-366.514,21.301c-24.683,1.465 -45.984,-15.44 -47.336,-38.094c-1.353,-22.541 17.92,-42.376 42.602,-43.842Zm55.901,-268.912l367.19,-21.414c24.683,-1.352 45.42,16.117 46.773,38.658c1.352,22.541 -17.244,42.376 -41.926,43.729l-367.191,21.414c-24.682,1.465 -45.532,-16.004 -46.772,-38.545c-1.352,-22.654 17.357,-42.377 41.926,-43.842Z" style="fill:#4d4d4d;"/></g></g></g></g><defs><linearGradient id="_Linear1" x1="0" y1="0" x2="1" y2="0" gradientUnits="userSpaceOnUse" gradientTransform="matrix(2121.07,0,0,1236.7,6.1324,1112.69)"><stop offset="0" style="stop-color:#0070ff;stop-opacity:1"/><stop offset="1" style="stop-color:#00bfff;stop-opacity:1"/></linearGradient></defs></svg>