<?xml version="1.0" encoding="UTF-8" standalone="no"?><!DOCTYPE svg PUBLIC "-//W3C//DTD SVG 1.1//EN" "http://www.w3.org/Graphics/SVG/1.1/DTD/svg11.dtd"><svg width="100%" height="100%" viewBox="0 0 10242 2134" version="1.1" xmlns="http://www.w3.org/2000/svg" xmlns:xlink="http://www.w3.org/1999/xlink" xml:space="preserve" xmlns:serif="http://www.serif.com/" style="fill-rule:evenodd;clip-rule:evenodd;stroke-linejoin:round;stroke-miterlimit:2;"><g id="Logo"><g><g><g><g transform="matrix(0.971776,0,0,1,-43.1366,-1.81899e-12)"><g transform="matrix(1454.86,0,0,1454.86,9355.17,1367.98)"></g><text x="3809.35px" y="1367.98px" style="font-family:'Goldplay-SemiBold', 'Goldplay';font-weight:600;font-size:1454.87px;fill:#404040;">A<tspan x="4766.63px 5344.19px " y="1367.98px 1367.98px ">te</tspan>ndfy</text></g></g><g><path d="M2447.35,1752.31c-134.304,-0 -268.434,-33.316 -389.203,-98.386c-89.883,-48.585 -172.477,-114.869 -242.058,-198.332c-182.889,-218.981 -233.557,-503.552 -160.332,-755.501c43.033,-147.838 128.578,-284.571 255.073,-390.244c149.747,-124.933 331.941,-185.839 513.616,-185.839c234.25,0 467.806,101.162 631.088,296.891c290.123,347.038 247.091,860.133 -95.088,1145.92c-149.574,124.76 -331.421,185.492 -513.096,185.492Z" style="fill:#fff;fill-rule:nonzero;"/><path d="M329.207,515.116c269.128,-575.736 1079.46,-727.565 1489.66,-218.634c-131.528,60.905 -229.565,124.24 -307.649,188.962c-23.599,-29.151 -51.709,-54.658 -82.595,-76.348c-289.603,-205.62 -731.729,-1.041 -850.763,275.548c-31.06,-43.554 -150.962,-125.628 -248.653,-169.528Z" style="fill:#4d4d4d;fill-rule:nonzero;"/><path d="M3028.64,1560.39c-35.051,36.092 -72.877,69.755 -114.001,100.121l-16.485,372.545l-256.287,-89.015c-526.457,-182.889 -1138.98,-53.097 -1694.93,-20.649c-238.936,13.881 -461.214,-62.988 -627.097,-198.159c-165.711,-135.171 -275.028,-328.297 -287.868,-547.452c-9.023,-155.646 31.927,-303.658 110.01,-432.062c38.175,-61.599 83.463,-118.339 137.601,-168.487c262.361,127.71 335.759,144.368 213.255,345.997c-41.645,67.846 -63.682,147.665 -58.823,231.127c6.941,118.166 65.243,222.105 154.258,294.462l1.909,1.735c145.062,136.212 368.38,113.655 585.453,87.974c598.466,-69.755 1023.24,-75.307 1497.82,145.582l11.625,-318.233c309.384,-214.99 234.944,-591.873 10.411,-773.2c-166.752,-134.304 -417.66,-161.546 -656.422,66.978c-94.047,89.189 -162.24,224.013 -236.679,347.732c-126.843,208.049 -272.599,385.732 -598.294,267.74c297.065,-421.999 423.907,-1103.58 1123.71,-1144.36c253.164,-14.749 488.108,65.763 664.056,208.049c174.734,143.5 289.603,347.731 303.138,579.9c7.114,122.504 -14.403,241.538 -60.558,350.681c-46.851,109.143 -117.472,208.397 -205.794,290.991Z" style="fill:url(#_Linear1);fill-rule:nonzero;"/><path d="M1896.78,1011.55l842.781,-49.106c38.001,-2.255 71.142,24.64 73.051,59.344c2.083,34.877 -27.763,64.549 -65.59,66.631l-842.954,49.106c-37.827,2.256 -69.755,-23.772 -71.837,-58.476c-1.909,-34.877 26.548,-65.243 64.549,-67.499Zm115.217,196.424l564.283,-32.795c37.827,-2.256 70.622,24.639 72.704,59.343c2.082,34.877 -27.416,64.549 -65.417,66.805l-564.283,32.795c-38.001,2.255 -70.795,-23.772 -72.878,-58.649c-2.082,-34.704 27.59,-65.243 65.591,-67.499Zm86.065,-414.017l565.324,-32.968c38.001,-2.082 69.928,24.813 72.01,59.517c2.083,34.704 -26.548,65.243 -64.549,67.325l-565.324,32.969c-38,2.255 -70.102,-24.64 -72.011,-59.344c-2.081,-34.877 26.723,-65.243 64.55,-67.499Z" style="fill:#4d4d4d;"/></g><g transform="matrix(0.971776,0,0,1,46.8598,0)"><g transform="matrix(483.746,0,0,483.746,10313.9,2084.91)"></g><text x="7787.74px" y="2084.91px" style="font-family:'Goldplay-Regular', 'Goldplay';font-size:483.746px;">b<tspan x="8086.69px 8322.28px " y="2084.91px 2084.91px ">y </tspan>ioidigital</text></g></g></g></g><defs><linearGradient id="_Linear1" x1="0" y1="0" x2="1" y2="0" gradientUnits="userSpaceOnUse" gradientTransform="matrix(3265.59,0,0,1904.02,30.7382,1081.05)"><stop offset="0" style="stop-color:#0070ff;stop-opacity:1"/><stop offset="1" style="stop-color:#00bfff;stop-opacity:1"/></linearGradient></defs></svg>